<?xml version="1.0" standalone="no"?>
<!DOCTYPE svg PUBLIC "-//W3C//DTD SVG 20010904//EN"
 "http://www.w3.org/TR/2001/REC-SVG-20010904/DTD/svg10.dtd">
<svg version="1.0" xmlns="http://www.w3.org/2000/svg"
 width="1009.000000pt" height="1280.000000pt" viewBox="0 0 1009.000000 1280.000000"
 preserveAspectRatio="xMidYMid meet">

<g transform="translate(0.000000,1280.000000) scale(0.100000,-0.100000)"
fill="#000000" stroke="none">
<path d="M5178 11813 c7 -3 16 -2 19 1 4 3 -2 6 -13 5 -11 0 -14 -3 -6 -6z"/>
<path d="M5450 11770 c0 -5 5 -10 10 -10 6 0 10 5 10 10 0 6 -4 10 -10 10 -5
0 -10 -4 -10 -10z"/>
<path d="M5185 11750 c-7 -12 3 -32 13 -26 4 2 13 -2 20 -10 7 -8 10 -15 7
-15 -3 -1 -9 -3 -15 -4 -5 -1 -21 -3 -35 -4 -29 -1 -35 -21 -6 -21 10 0 34 -6
52 -14 19 -7 39 -11 46 -9 6 2 31 -5 55 -16 66 -30 116 -37 124 -17 4 11 13
14 25 11 25 -8 24 7 0 22 -16 10 -20 9 -24 -9 -5 -19 -7 -20 -23 -4 -10 11
-28 16 -47 14 -18 -2 -32 2 -35 10 -2 7 0 12 5 11 26 -5 83 2 83 11 0 5 -17
12 -37 15 -69 12 -107 27 -92 36 8 5 28 9 44 10 29 1 30 1 5 9 -36 12 -158 12
-165 0z"/>
<path d="M5500 11751 c0 -5 7 -12 16 -15 22 -9 24 -8 24 9 0 8 -9 15 -20 15
-11 0 -20 -4 -20 -9z"/>
<path d="M5414 11731 c10 -11 22 -18 26 -16 4 3 10 -2 14 -10 3 -8 15 -15 26
-15 11 0 20 -4 20 -10 0 -5 9 -10 19 -10 11 0 21 -5 23 -11 2 -6 18 -9 36 -7
l33 3 -33 16 c-18 9 -46 22 -63 30 -16 7 -37 18 -45 25 -8 6 -28 15 -45 18
-29 7 -29 7 -11 -13z"/>
<path d="M5118 11733 c-26 -3 -38 -9 -38 -19 0 -13 8 -14 43 -9 23 4 45 9 50
12 9 5 -1 24 -11 21 -4 -1 -24 -3 -44 -5z"/>
<path d="M4830 11700 c0 -5 5 -10 10 -10 6 0 10 5 10 10 0 6 -4 10 -10 10 -5
0 -10 -4 -10 -10z"/>
<path d="M5668 11690 c12 -11 32 -20 46 -20 13 0 59 -18 102 -40 86 -44 94
-46 94 -27 0 14 -80 67 -101 67 -8 0 -29 9 -47 20 -19 12 -50 20 -74 20 l-42
0 22 -20z"/>
<path d="M5515 11610 c28 -12 95 -12 95 0 0 6 -25 10 -57 9 -42 0 -52 -3 -38
-9z"/>
<path d="M4829 11586 c-2 -2 -40 -6 -84 -9 -44 -4 -114 -13 -155 -22 -41 -9
-87 -19 -101 -22 -15 -3 -32 -16 -40 -29 -7 -13 -18 -24 -26 -24 -7 0 -13 -4
-13 -9 0 -5 -11 -12 -24 -15 -14 -3 -31 -13 -40 -21 -13 -13 -19 -13 -52 7
-26 15 -39 18 -42 10 -2 -7 -15 -12 -28 -12 -14 0 -35 -5 -47 -12 -12 -6 -38
-12 -57 -13 -89 -5 -83 -2 -76 -35 4 -21 2 -30 -8 -30 -7 0 -18 -10 -24 -22
-11 -23 -11 -23 -11 4 -2 52 -9 59 -42 42 -16 -8 -34 -12 -39 -9 -4 3 -32 -8
-62 -25 -29 -17 -67 -38 -85 -47 -17 -9 -34 -25 -36 -35 -3 -11 -15 -22 -26
-25 -12 -3 -21 -9 -21 -13 0 -4 -16 -24 -35 -43 -19 -19 -35 -40 -35 -46 0 -6
-5 -11 -11 -11 -6 0 -9 -9 -6 -20 3 -11 2 -18 -2 -16 -7 5 -30 -12 -50 -37
-12 -15 -12 -19 5 -32 18 -14 18 -14 1 -15 -10 0 -15 -4 -12 -10 3 -5 1 -10
-6 -10 -6 0 -29 -16 -50 -35 -22 -19 -46 -35 -55 -35 -27 0 -87 -33 -124 -67
-19 -18 -41 -33 -47 -33 -7 0 -13 -4 -13 -10 0 -5 -9 -10 -20 -10 -11 0 -20
-4 -20 -10 0 -5 -7 -10 -15 -10 -8 0 -15 -4 -15 -10 0 -5 -6 -10 -14 -10 -7 0
-19 -7 -26 -15 -7 -8 -21 -15 -31 -15 -11 0 -19 -3 -19 -7 0 -11 -50 -33 -72
-33 -10 0 -18 5 -18 10 0 6 5 10 10 10 6 0 34 16 63 35 28 19 60 35 70 35 10
0 15 5 12 10 -3 6 3 10 14 10 12 0 21 5 21 10 0 6 -7 10 -15 10 -8 0 -15 5
-15 10 0 13 26 13 49 0 14 -7 23 -5 35 9 15 16 15 19 1 24 -8 4 -15 11 -15 17
0 14 27 13 33 -2 2 -7 8 -9 13 -5 5 4 2 12 -6 17 -8 5 -11 12 -7 16 3 4 13 1
22 -6 10 -8 15 -9 15 -1 0 6 -4 11 -10 11 -5 0 -10 7 -10 15 0 8 3 15 8 15 4
0 18 17 32 37 14 20 35 47 48 59 12 13 22 28 22 34 0 5 4 10 9 10 10 0 24 31
17 38 -3 2 -11 -2 -19 -9 -19 -19 -106 -91 -129 -107 -11 -8 -30 -11 -47 -7
-26 5 -37 -1 -96 -59 -36 -36 -80 -73 -96 -83 -16 -10 -29 -21 -29 -25 0 -4
-8 -8 -18 -8 -9 0 -23 -9 -30 -20 -9 -15 -23 -20 -58 -20 -27 0 -43 -4 -39
-10 3 -5 0 -10 -8 -10 -10 0 -13 7 -10 20 3 11 10 20 15 20 13 0 58 47 58 60
0 13 32 9 42 -5 4 -5 10 -6 14 -2 4 4 3 12 -3 18 -6 6 -9 18 -6 25 3 8 0 14
-6 14 -6 0 -11 -4 -11 -10 0 -5 -5 -10 -10 -10 -16 0 -35 -17 -95 -84 l-34
-39 22 -18 c12 -10 17 -18 10 -19 -7 0 -16 -14 -21 -32 -5 -21 -15 -32 -29
-34 -17 -3 -20 1 -16 16 3 11 9 20 14 20 5 0 9 10 9 23 0 21 -1 21 -28 -8 -15
-16 -37 -45 -47 -62 -11 -18 -23 -33 -27 -33 -4 0 -8 -7 -8 -15 0 -8 -3 -15
-8 -15 -4 0 -12 -9 -17 -19 -32 -63 -81 -141 -87 -141 -5 0 -8 -6 -8 -12 -1
-13 -26 -42 -132 -157 -56 -59 -119 -169 -117 -204 1 -20 2 -20 12 6 6 15 14
27 19 27 4 0 8 9 8 20 0 11 4 20 9 20 5 0 13 9 16 20 10 30 25 24 25 -10 0
-16 -3 -30 -8 -30 -8 0 -29 -58 -53 -142 -17 -59 -34 -62 -38 -6 -3 61 -11 61
-11 0 0 -29 5 -52 10 -52 16 0 12 -28 -5 -38 -12 -6 -15 -26 -15 -88 2 -156
-1 -228 -11 -245 -11 -22 -11 -198 0 -259 5 -24 5 -115 0 -205 -7 -128 -6
-162 5 -170 20 -16 36 -51 36 -82 0 -16 4 -33 9 -38 5 -6 12 -39 14 -75 13
-160 27 -231 58 -292 5 -10 9 -28 9 -40 0 -13 4 -29 9 -37 7 -11 11 -8 17 10
l7 24 13 -30 c8 -21 9 -34 2 -42 -7 -9 -4 -23 11 -49 14 -23 21 -50 19 -74 -2
-41 26 -110 46 -110 7 0 21 -8 32 -18 11 -11 33 -25 49 -33 32 -16 43 -41 44
-111 1 -51 6 -56 36 -34 16 12 24 10 62 -13 24 -14 46 -34 49 -43 3 -10 11
-15 20 -11 11 4 14 -4 14 -36 0 -42 -13 -74 -41 -101 -32 -31 -49 -63 -39 -75
7 -8 5 -27 -5 -55 -17 -47 -7 -67 24 -51 9 5 21 6 28 4 6 -2 14 1 18 6 3 6 16
11 28 11 20 0 25 10 46 103 13 56 27 107 31 112 3 6 12 28 19 50 7 22 22 51
33 64 16 21 22 23 39 13 20 -13 129 -17 129 -4 0 4 -7 15 -15 26 -23 31 -3 56
40 49 40 -7 55 13 37 52 -8 17 -8 25 0 27 13 5 22 48 9 48 -16 0 -36 76 -36
140 0 60 2 65 23 68 12 2 22 -1 22 -7 0 -6 10 -11 23 -11 21 1 21 1 2 12 -55
32 -57 38 -45 134 6 48 16 94 22 102 8 9 8 16 0 24 -6 6 -7 19 -3 32 5 11 11
48 15 81 9 78 25 165 35 190 19 46 31 93 31 118 0 15 4 27 8 27 4 0 8 8 9 18
1 9 4 26 6 37 3 11 6 33 6 48 1 16 5 26 11 22 6 -4 10 7 10 24 0 17 5 31 10
31 6 0 10 9 10 20 0 12 7 34 15 49 8 16 19 51 25 77 6 27 19 67 29 89 11 22
27 61 38 87 10 27 21 48 26 48 4 0 7 9 7 20 0 11 5 20 10 20 6 0 10 6 10 13 0
7 11 24 25 39 14 15 25 32 25 38 0 5 4 10 8 10 5 0 13 10 19 23 6 12 31 33 57
46 25 13 46 28 46 33 0 4 7 8 15 8 8 0 15 5 15 10 0 6 14 10 31 10 17 0 37 6
44 13 36 31 45 37 64 37 11 0 23 5 26 10 3 6 13 10 22 10 9 0 34 8 54 18 38
17 50 32 27 32 -9 0 -8 4 2 10 20 13 64 12 94 -1 20 -9 28 -9 40 4 19 18 62
29 94 23 14 -3 25 0 29 9 3 8 12 15 20 15 8 0 11 -4 8 -10 -3 -5 2 -10 12 -11
10 0 13 -3 6 -6 -24 -9 -13 -23 17 -23 20 0 30 -5 30 -15 0 -9 7 -18 15 -21 8
-4 15 -15 15 -25 0 -12 7 -19 20 -19 15 0 20 -7 20 -29 0 -17 -4 -33 -10 -36
-12 -8 -13 -45 -1 -45 5 0 12 -15 15 -32 7 -31 8 -32 21 -14 11 15 15 16 16 5
0 -8 3 -23 5 -34 8 -35 5 -248 -4 -254 -4 -3 -8 -33 -8 -66 0 -33 -3 -84 -6
-113 -2 -29 -1 -55 3 -57 8 -6 7 -25 -4 -41 -4 -7 0 -15 9 -18 13 -5 16 -18
12 -71 -2 -37 0 -65 5 -65 20 0 34 -35 30 -71 -3 -21 -1 -39 6 -43 6 -4 11
-22 11 -40 0 -20 8 -40 20 -51 11 -10 20 -26 20 -37 0 -10 4 -18 8 -18 12 0
37 -78 28 -87 -4 -4 -11 -1 -16 7 -5 8 -13 11 -17 6 -4 -5 -2 -11 5 -13 6 -3
12 -9 12 -15 0 -5 6 -16 13 -23 29 -33 37 -45 37 -54 0 -6 9 -16 20 -23 11 -7
20 -18 20 -24 0 -27 61 -74 98 -74 10 0 33 -13 52 -30 37 -33 141 -90 164 -90
8 0 17 -6 19 -12 4 -10 8 -9 16 2 9 12 14 11 40 -8 16 -12 49 -26 73 -32 93
-24 88 -24 88 1 0 32 -9 42 -52 62 -57 27 -48 39 25 34 83 -7 188 -25 209 -37
10 -6 37 -10 61 -10 24 0 48 -5 55 -12 9 -9 18 -8 39 1 33 16 244 16 253 0 5
-6 16 -6 34 1 33 12 103 13 110 2 3 -5 60 -17 128 -27 68 -10 127 -22 132 -27
6 -4 38 -8 71 -8 53 0 64 -3 83 -25 12 -14 29 -25 38 -25 8 0 12 -4 9 -10 -4
-6 10 -10 35 -10 24 0 39 -4 35 -10 -8 -13 41 -44 59 -37 9 4 21 -4 30 -19 9
-13 24 -24 33 -24 9 0 24 -6 32 -14 9 -7 38 -17 65 -21 l49 -7 -6 31 c-6 30
-6 31 33 31 22 0 40 -4 40 -10 0 -5 14 -10 30 -10 17 0 30 -4 30 -10 0 -5 6
-10 14 -10 8 0 16 -4 18 -8 2 -4 19 -20 39 -35 31 -23 41 -26 63 -17 35 13 36
13 36 -4 0 -8 8 -17 18 -19 16 -4 16 -5 0 -6 -19 -1 -25 -31 -7 -31 15 0 6
-20 -33 -72 -27 -36 -39 -45 -63 -44 -20 1 -30 -4 -30 -14 0 -11 11 -14 48
-11 29 1 47 -2 47 -8 0 -6 5 -11 10 -11 6 0 10 12 10 28 0 33 34 66 58 57 16
-7 16 -8 1 -14 -11 -4 -14 -12 -10 -24 6 -17 8 -17 35 4 31 24 31 25 66 -43
11 -21 20 -46 20 -57 0 -11 7 -46 15 -78 8 -32 22 -121 31 -198 41 -384 38
-365 60 -365 8 0 14 -10 14 -25 0 -14 7 -28 16 -32 9 -3 14 -13 11 -24 -6 -21
3 -25 20 -8 9 9 10 7 6 -10 -3 -11 -11 -21 -18 -21 -16 0 -25 -21 -20 -46 2
-11 4 -27 4 -37 1 -25 21 -11 22 16 0 20 1 21 8 3 7 -18 8 -18 14 -2 4 10 7
26 7 37 0 10 5 19 10 19 6 0 10 7 10 15 0 8 5 15 10 15 6 0 10 20 10 45 0 36
-5 51 -25 69 -13 12 -29 35 -35 50 -12 34 -13 96 0 116 6 9 5 17 -2 21 -13 8
-13 9 -21 104 -3 39 -3 60 0 48 7 -36 21 -27 28 20 10 58 61 177 77 177 12 0
9 29 -5 53 -9 14 -11 33 -7 52 4 17 8 24 9 17 0 -7 5 -11 10 -7 5 3 7 29 4 58
-5 50 -3 54 34 94 41 45 87 61 114 40 22 -17 19 -58 -6 -79 -20 -17 -20 -17 2
-18 12 0 24 6 26 13 4 9 8 8 17 -3 10 -13 11 -12 6 3 -3 11 2 22 14 29 15 10
16 15 7 26 -9 11 -7 17 6 27 9 7 17 18 17 25 0 7 -3 10 -6 7 -13 -13 -44 36
-40 62 2 14 5 29 5 34 1 4 11 7 22 7 21 0 22 3 16 66 -8 87 8 206 35 260 19
40 20 46 7 60 -16 15 -14 74 2 74 12 0 11 87 -1 95 -5 3 -10 15 -10 26 0 10 5
19 10 19 6 0 10 16 10 35 0 19 4 35 9 35 11 0 28 49 37 110 7 40 28 79 39 68
2 -2 0 -35 -6 -72 -8 -59 -7 -72 7 -88 10 -10 20 -18 24 -18 4 0 8 39 9 87 1
48 6 93 12 99 6 8 10 95 10 226 -1 204 -11 300 -41 373 -4 11 -14 36 -20 55
-30 85 -44 110 -62 110 -10 0 -18 7 -18 15 0 8 -4 15 -10 15 -5 0 -10 7 -10
15 0 8 4 15 9 15 6 0 7 10 4 23 -3 12 -5 34 -5 50 1 18 -4 27 -14 27 -13 0
-14 9 -9 55 6 44 3 68 -16 122 -13 38 -27 70 -31 71 -5 2 -8 10 -8 17 0 8 -9
17 -21 20 -25 8 -75 113 -61 127 12 12 -18 69 -33 65 -17 -6 -36 21 -31 47 5
30 -3 40 -21 24 -8 -6 -13 -7 -11 -1 3 9 -14 31 -79 100 -22 23 -29 39 -26 54
3 12 1 24 -4 28 -6 3 -21 24 -35 46 -23 36 -64 82 -99 111 -8 6 -21 21 -29 33
-8 13 -24 27 -35 33 -18 10 -18 9 -7 -5 8 -9 11 -20 8 -25 -3 -5 9 -20 26 -33
39 -30 68 -60 68 -71 0 -11 53 -92 63 -96 4 -2 7 -15 7 -28 0 -13 5 -24 10
-24 6 0 10 -9 10 -20 0 -11 5 -20 10 -20 6 0 10 -7 10 -15 0 -8 3 -15 8 -15 4
0 15 -14 25 -31 17 -30 22 -59 11 -59 -10 0 -43 44 -44 58 0 6 -4 12 -10 12
-5 0 -10 5 -10 10 0 12 -52 94 -62 98 -5 2 -8 9 -8 15 0 16 -100 121 -107 113
-8 -7 23 -70 42 -86 8 -7 15 -16 15 -21 0 -4 11 -20 25 -35 14 -15 25 -33 25
-40 0 -8 4 -14 9 -14 5 0 11 -8 15 -17 7 -21 45 -86 55 -93 13 -11 31 -51 31
-71 0 -21 -1 -22 -20 -4 -11 10 -20 26 -20 37 0 10 -4 18 -10 18 -5 0 -10 9
-10 20 0 18 -10 24 -31 22 -4 -1 -10 10 -13 23 -4 14 -11 25 -16 25 -6 0 -10
9 -10 20 0 11 -4 20 -9 20 -5 0 -13 9 -16 21 -4 12 -12 18 -21 15 -8 -3 -14 1
-14 9 0 9 -6 12 -16 8 -13 -5 -15 -2 -9 17 6 19 4 22 -9 17 -10 -4 -16 -1 -16
9 0 16 -10 30 -52 75 -16 15 -28 34 -28 41 0 7 -9 19 -20 26 -11 7 -20 17 -20
23 0 6 -6 17 -12 24 -27 30 -38 44 -38 50 0 6 -2 9 -60 78 -22 27 -40 53 -40
59 0 5 -7 8 -15 4 -8 -3 -15 -1 -15 4 0 6 -7 10 -15 10 -8 0 -15 5 -15 10 0 6
-9 10 -20 10 -11 0 -23 7 -26 15 -4 8 -10 12 -15 9 -5 -3 -9 0 -9 7 0 6 -16
26 -35 45 -19 18 -35 37 -35 41 0 5 -8 18 -18 29 -10 10 -31 37 -47 59 -17 22
-43 53 -58 69 -23 24 -31 27 -38 15 -5 -8 -7 -23 -5 -34 4 -18 4 -18 -7 -4
-17 22 -57 34 -57 17 1 -35 63 -75 72 -47 2 6 10 -1 18 -16 13 -24 13 -28 -3
-36 -15 -9 -13 -14 20 -44 21 -19 41 -35 45 -35 13 0 76 -68 83 -90 3 -11 11
-20 16 -20 6 0 20 -11 33 -25 13 -14 31 -25 39 -25 9 0 33 -16 53 -35 19 -19
43 -35 52 -35 8 0 13 -3 9 -6 -3 -3 5 -16 19 -29 13 -12 24 -27 24 -32 0 -6
11 -22 25 -37 14 -15 25 -37 25 -50 0 -12 5 -27 12 -34 7 -7 8 -12 3 -12 -4 0
-38 32 -75 70 -37 39 -71 70 -77 70 -13 0 -72 65 -83 93 -7 18 -9 19 -9 4 -1
-24 -21 -11 -21 14 0 10 -7 19 -15 19 -8 0 -15 4 -15 8 0 10 -62 77 -76 83
-12 4 -147 123 -173 152 -8 9 -21 17 -29 17 -15 0 -62 45 -62 60 0 5 7 10 15
10 10 0 12 6 8 18 -8 19 -28 42 -38 42 -9 0 -35 27 -35 36 0 12 -117 124 -130
124 -7 0 -6 -8 4 -22 9 -12 16 -38 16 -56 0 -35 24 -77 72 -124 32 -32 33 -36
12 -66 -14 -21 -14 -22 8 -24 13 0 29 -1 36 -1 16 1 52 -32 52 -47 0 -5 5 -10
10 -10 6 0 10 -7 10 -16 0 -8 16 -30 35 -48 39 -37 40 -72 2 -60 -17 5 -19 3
-14 -17 3 -14 1 -31 -4 -39 -9 -12 -10 -12 -5 3 4 13 0 20 -14 24 -11 3 -20
12 -20 19 0 8 -4 14 -10 14 -5 0 -10 9 -10 20 0 24 6 25 27 5 23 -24 28 -10 6
19 -21 29 -33 33 -33 11 0 -21 -23 -19 -40 5 -8 11 -20 20 -27 20 -7 0 -13 5
-13 10 0 12 -10 26 -56 76 -17 19 -36 34 -42 34 -6 0 -12 6 -15 13 -2 6 -8 8
-13 4 -5 -4 -4 -11 2 -15 6 -4 15 -18 19 -31 5 -15 4 -21 -3 -17 -20 12 -24
-15 -6 -35 24 -26 48 -95 28 -78 -11 9 -15 8 -20 -5 -8 -20 -24 -21 -24 -1 0
8 -4 15 -10 15 -5 0 -10 9 -10 19 0 11 -7 26 -15 35 -8 8 -15 19 -15 25 0 6
-4 11 -10 11 -5 0 -10 6 -10 13 0 32 -177 187 -214 187 -9 0 -16 5 -16 10 0 6
-5 10 -12 10 -6 0 -19 6 -27 14 -24 21 -90 56 -105 56 -8 0 -16 3 -18 8 -5 12
-68 42 -88 42 -10 0 -22 5 -25 10 -3 6 -25 10 -49 10 -23 0 -48 6 -55 13 -11
10 -11 8 -1 -9 7 -11 27 -26 44 -34 17 -8 40 -22 51 -32 10 -10 42 -30 70 -43
89 -45 96 -50 82 -65 -10 -10 -8 -10 10 -1 25 13 42 -3 18 -17 -20 -11 -11
-36 21 -52 29 -16 43 -6 26 20 -14 23 0 27 22 5 8 -8 17 -15 20 -15 3 0 31
-25 61 -57 66 -67 112 -140 98 -154 -16 -16 -2 -58 28 -83 16 -14 29 -30 29
-36 0 -7 14 -26 30 -43 17 -18 41 -44 55 -59 27 -27 21 -43 -12 -31 -10 4 -25
15 -34 25 -9 10 -21 18 -26 18 -5 0 -23 11 -39 25 -16 14 -34 25 -39 25 -6 0
-19 12 -29 26 -14 17 -26 24 -40 20 -28 -7 -38 2 -60 52 -11 23 -25 42 -31 42
-18 0 -95 77 -95 95 0 8 -9 15 -20 15 -10 0 -25 7 -32 15 -35 42 -63 68 -101
93 -23 15 -50 35 -60 45 -11 11 -27 17 -38 14 -12 -3 -17 -1 -12 6 4 6 0 8
-10 4 -10 -3 -17 -2 -17 3 0 6 -5 10 -11 10 -18 0 -89 54 -89 68 0 6 -4 12
-10 12 -5 0 -18 8 -28 18 -38 35 -193 112 -227 112 -8 0 -15 5 -15 10 0 6 -9
10 -20 10 -11 0 -20 4 -20 9 0 4 -21 11 -46 14 -26 2 -50 11 -55 18 -4 8 -26
15 -49 16 -33 1 -40 -2 -40 -18 0 -12 -7 -19 -18 -19 -28 0 -34 11 -14 26 9 7
12 14 6 14 -6 0 -13 -2 -15 -4z m111 -46 c0 -5 -9 -10 -19 -10 -11 0 -23 5
-26 10 -4 6 5 10 19 10 14 0 26 -4 26 -10z m103 -47 c-7 -2 -19 -2 -25 0 -7 3
-2 5 12 5 14 0 19 -2 13 -5z m-203 -148 c50 -6 147 -41 171 -62 8 -7 25 -13
37 -13 12 0 22 -4 22 -10 0 -5 7 -10 15 -10 21 0 19 -30 -2 -31 -14 0 -14 -2
3 -9 12 -5 25 -13 29 -19 9 -16 42 -13 49 4 3 10 -1 15 -12 16 -9 0 -12 3 -5
5 6 3 31 -4 54 -15 24 -12 49 -21 56 -21 7 0 13 -4 13 -10 0 -5 7 -10 15 -10
22 0 93 -52 98 -72 4 -15 -2 -18 -40 -18 -27 0 -42 4 -38 10 3 6 -2 10 -13 10
-10 0 -29 11 -42 25 -13 14 -32 25 -42 25 -10 0 -18 5 -18 10 0 6 -16 10 -35
10 -19 0 -35 5 -35 10 0 6 -16 10 -35 10 -19 0 -40 6 -47 14 -8 9 -26 12 -49
9 -36 -5 -84 11 -75 25 2 4 -14 6 -36 4 -22 -3 -50 0 -62 6 -50 23 -86 33 -96
27 -8 -5 -11 -1 -8 11 2 13 13 20 36 22 45 5 40 18 -10 27 l-43 7 30 13 c17 8
39 12 50 10 11 -2 40 -6 65 -10z m-870 -36 c0 -6 -7 -9 -15 -5 -9 3 -15 0 -15
-10 0 -8 -4 -12 -10 -9 -5 3 -10 1 -10 -6 0 -10 -3 -10 -12 -1 -9 9 -8 15 8
27 23 17 54 20 54 4z m678 -15 c7 -14 8 -23 2 -19 -5 3 -10 2 -10 -4 0 -15
-27 -2 -35 16 -5 14 9 32 26 33 3 0 11 -12 17 -26z m-48 -15 c0 -5 -7 -6 -15
-3 -13 5 -14 2 -5 -21 6 -15 8 -30 5 -33 -3 -3 -5 0 -5 7 0 7 -6 11 -14 8 -15
-6 -26 12 -33 50 -3 20 -1 21 32 10 19 -5 35 -14 35 -18z m-700 -10 c0 -5 -7
-9 -15 -9 -8 0 -34 -18 -56 -40 -23 -22 -43 -40 -45 -40 -5 0 -28 -19 -74 -61
-17 -16 -38 -29 -45 -29 -8 0 -17 -4 -20 -10 -3 -5 -10 -10 -16 -10 -5 0 -9 5
-9 10 0 6 7 10 15 10 8 0 15 9 15 19 0 11 9 23 20 26 11 3 20 11 20 16 0 5 5
9 11 9 13 0 32 19 48 48 6 12 18 22 25 22 7 0 21 9 31 20 10 11 28 20 41 20
13 0 26 5 29 10 7 12 25 4 25 -11z m600 -9 c0 -5 -4 -10 -9 -10 -6 0 -13 5
-16 10 -3 6 1 10 9 10 9 0 16 -4 16 -10z m1073 -44 c9 -7 17 -18 17 -24 0 -6
6 -12 13 -15 6 -2 9 -7 5 -11 -8 -10 -49 25 -42 36 3 4 -2 8 -10 8 -9 0 -16 5
-16 10 0 13 11 12 33 -4z m-1813 -116 c0 -5 -2 -10 -4 -10 -3 0 -8 5 -11 10
-3 6 -1 10 4 10 6 0 11 -4 11 -10z m177 -37 c-3 -10 -5 -2 -5 17 0 19 2 27 5
18 2 -10 2 -26 0 -35z m1321 15 c31 -31 2 -38 -30 -8 -21 19 -21 20 -2 20 11
0 25 -5 32 -12z m-1560 -17 c10 -6 9 -10 -7 -14 -14 -3 -21 0 -21 9 0 16 9 18
28 5z m2619 -53 c-3 -8 -6 -5 -6 6 -1 11 2 17 5 13 3 -3 4 -12 1 -19z m33 -18
c0 -5 -4 -10 -10 -10 -5 0 -10 5 -10 10 0 6 5 10 10 10 6 0 10 -4 10 -10z
m-70 -52 c0 -5 -4 -8 -10 -8 -5 0 -10 10 -10 23 0 18 2 19 10 7 5 -8 10 -18
10 -22z m-2476 -30 c-4 -18 -9 -27 -11 -20 -7 19 -41 14 -55 -8 -7 -11 -18
-20 -25 -20 -7 0 -13 -5 -13 -11 0 -5 -8 -9 -17 -7 -23 3 -83 -32 -83 -49 0
-20 -32 -52 -46 -46 -19 7 -18 23 1 23 8 0 15 5 15 10 0 6 -7 10 -15 10 -24 0
-53 31 -48 51 6 22 14 24 31 7 9 -9 15 -9 24 0 7 7 25 12 40 12 15 0 28 5 28
10 0 6 9 10 19 10 11 0 23 5 26 10 3 6 17 10 30 10 13 0 27 5 31 11 7 12 67
40 72 34 2 -2 1 -19 -4 -37z m2826 32 c0 -5 -4 -10 -10 -10 -5 0 -10 5 -10 10
0 6 5 10 10 10 6 0 10 -4 10 -10z m20 -20 c0 -5 -5 -10 -11 -10 -5 0 -7 5 -4
10 3 6 8 10 11 10 2 0 4 -4 4 -10z m-3153 -32 c-3 -8 -6 -5 -6 6 -1 11 2 17 5
13 3 -3 4 -12 1 -19z m1141 1 c2 -5 14 -9 28 -9 16 0 22 -4 18 -14 -3 -8 2
-16 13 -19 15 -4 14 -5 -4 -6 -12 0 -25 4 -28 9 -3 6 -15 10 -26 10 -10 0 -19
5 -19 11 0 7 -13 10 -33 7 -34 -4 -70 16 -44 25 20 6 92 -4 95 -14z m1704 -29
c4 0 8 -5 8 -10 0 -6 10 -22 23 -35 46 -48 85 -111 75 -121 -4 -3 -49 34 -48
40 2 27 -2 36 -15 36 -8 0 -15 7 -15 15 0 8 -4 15 -10 15 -5 0 -10 7 -10 15 0
8 -4 15 -10 15 -5 0 -10 7 -10 15 0 8 -4 15 -10 15 -5 0 -10 10 -9 23 l0 22
11 -22 c6 -13 15 -23 20 -23z m-95 8 c-3 -8 -6 -5 -6 6 -1 11 2 17 5 13 3 -3
4 -12 1 -19z m-2347 8 c0 -3 -4 -8 -10 -11 -5 -3 -10 -1 -10 4 0 6 5 11 10 11
6 0 10 -2 10 -4z m2830 -6 c0 -5 -7 -10 -15 -10 -8 0 -15 5 -15 10 0 6 7 10
15 10 8 0 15 -4 15 -10z m-456 -35 c3 -8 1 -15 -4 -15 -6 0 -10 7 -10 15 0 8
2 15 4 15 2 0 6 -7 10 -15z m-3184 -9 c0 -2 -7 -7 -16 -10 -8 -3 -12 -2 -9 4
6 10 25 14 25 6z m1730 -6 c0 -12 -8 -12 -35 0 -18 8 -17 9 8 9 15 1 27 -3 27
-9z m-1122 -24 c-10 -7 -15 -16 -11 -19 3 -4 1 -7 -5 -7 -16 0 -15 27 1 33 24
10 32 6 15 -7z m-188 -17 c0 -5 -9 -9 -19 -9 -11 0 -23 -5 -27 -11 -4 -8 -9
-8 -17 0 -6 6 -19 11 -29 11 -34 0 -18 19 20 22 45 4 72 -1 72 -13z m1020 7
c0 -11 -19 -15 -25 -6 -3 5 1 10 9 10 9 0 16 -2 16 -4z m135 -17 c4 -11 13
-18 19 -16 19 8 81 -52 101 -96 24 -52 6 -71 -21 -22 -10 19 -22 35 -26 35 -5
0 -8 7 -8 15 0 8 -3 15 -7 15 -5 0 -30 21 -57 45 -40 37 -45 45 -28 45 12 0
23 -8 27 -21z m277 4 c10 -9 18 -21 18 -27 0 -6 -5 -3 -11 7 -5 9 -17 17 -24
17 -8 0 -15 5 -15 10 0 15 11 12 32 -7z m1818 -3 c11 -21 8 -24 -25 -20 -19 2
-35 16 -35 33 0 16 50 6 60 -13z m-3375 -20 c-3 -5 -12 -7 -20 -3 -21 7 -19
13 6 13 11 0 18 -4 14 -10z m-90 -40 c-3 -5 -13 -10 -21 -10 -8 0 -14 5 -14
10 0 6 9 10 21 10 11 0 17 -4 14 -10z m459 -6 c4 -9 4 -19 2 -21 -8 -8 -89
-10 -116 -3 -23 7 -23 8 12 15 20 4 41 4 46 1 5 -3 15 1 22 9 16 19 26 19 34
-1z m1256 -4 c0 -11 -4 -20 -10 -20 -5 0 -10 9 -10 20 0 11 5 20 10 20 6 0 10
-9 10 -20z m1462 -5 c-2 -14 -9 -25 -14 -25 -5 0 -7 3 -5 8 2 4 7 15 10 25 9
25 15 21 9 -8z m-2885 -37 c-17 -11 -75 -10 -82 2 -4 6 7 10 24 10 17 0 31 5
31 10 0 6 8 5 20 -2 14 -9 16 -14 7 -20z m-584 16 c11 -11 -3 -24 -18 -18 -8
4 -12 10 -9 15 6 11 18 12 27 3z m477 -14 c0 -5 -2 -10 -4 -10 -3 0 -8 5 -11
10 -3 6 -1 10 4 10 6 0 11 -4 11 -10z m3040 -20 c0 -5 -7 -10 -15 -10 -8 0
-15 5 -15 10 0 6 7 10 15 10 8 0 15 -4 15 -10z m-3775 -16 c-9 -9 -19 -13 -23
-10 -3 4 0 11 8 16 24 15 33 11 15 -6z m620 -4 c3 -5 1 -10 -4 -10 -6 0 -11 5
-11 10 0 6 2 10 4 10 3 0 8 -4 11 -10z m3535 -1 c0 -5 5 -7 11 -4 6 4 13 -2
16 -14 3 -12 9 -21 14 -21 5 0 9 -4 9 -10 0 -16 -14 -12 -48 16 -17 15 -29 30
-26 35 7 12 24 11 24 -2z m-3625 -49 c3 -5 -1 -10 -9 -10 -9 0 -16 5 -16 10 0
6 4 10 9 10 6 0 13 -4 16 -10z m3323 -8 c2 -7 -2 -10 -12 -6 -9 3 -16 11 -16
16 0 13 23 5 28 -10z m-1848 -7 c0 -8 -2 -15 -4 -15 -2 0 -6 7 -10 15 -3 8 -1
15 4 15 6 0 10 -7 10 -15z m90 -31 c0 -8 -5 -12 -10 -9 -6 4 -8 11 -5 16 9 14
15 11 15 -7z m-1700 -24 c0 -5 -4 -10 -10 -10 -5 0 -10 5 -10 10 0 6 5 10 10
10 6 0 10 -4 10 -10z m3560 -15 c0 -12 4 -14 17 -7 13 8 27 0 65 -40 26 -27
48 -56 48 -63 0 -7 12 -17 28 -23 33 -12 74 -50 67 -62 -7 -12 -36 -1 -56 22
-9 10 -21 18 -26 18 -5 0 -24 15 -44 33 -44 41 -140 107 -157 107 -16 0 -16
17 1 23 27 11 57 7 57 -8z m-1933 -32 c-3 -10 -5 -4 -5 12 0 17 2 24 5 18 2
-7 2 -21 0 -30z m103 12 c0 -8 -4 -15 -10 -15 -5 0 -10 7 -10 15 0 8 5 15 10
15 6 0 10 -7 10 -15z m2310 -5 c0 -5 -5 -10 -11 -10 -5 0 -7 5 -4 10 3 6 8 10
11 10 2 0 4 -4 4 -10z m-2976 -8 c3 -5 30 -10 61 -11 40 -1 61 -7 75 -21 20
-20 20 -20 -5 -20 -14 0 -25 3 -25 8 0 4 -24 8 -53 10 -28 2 -53 7 -55 13 -2
5 -15 9 -28 9 -13 0 -24 5 -24 10 0 12 47 13 54 2z m16 -232 c0 -5 -4 -10 -10
-10 -5 0 -10 5 -10 10 0 6 5 10 10 10 6 0 10 -4 10 -10z m3240 0 c0 -5 -4 -10
-10 -10 -5 0 -10 5 -10 10 0 6 5 10 10 10 6 0 10 -4 10 -10z m-3200 -20 c0 -5
-7 -10 -15 -10 -8 0 -15 5 -15 10 0 6 7 10 15 10 8 0 15 -4 15 -10z m3240 -45
c0 -12 -19 -12 -23 0 -4 9 -1 12 9 8 7 -3 14 -7 14 -8z m207 -177 c-3 -8 -6
-5 -6 6 -1 11 2 17 5 13 3 -3 4 -12 1 -19z m-3437 -8 c0 -5 -5 -10 -11 -10 -5
0 -7 5 -4 10 3 6 8 10 11 10 2 0 4 -4 4 -10z m177 -252 c-4 -23 -4 -23 -14 2
-8 18 -8 29 1 39 9 12 11 12 14 -2 2 -9 2 -27 -1 -39z m2693 -1878 c0 -5 -4
-10 -10 -10 -5 0 -10 5 -10 10 0 6 5 10 10 10 6 0 10 -4 10 -10z"/>
<path d="M4816 11296 c4 -10 13 -15 20 -12 8 3 14 2 14 -3 0 -9 50 -34 56 -28
7 7 -37 47 -51 47 -7 0 -21 3 -29 6 -12 5 -15 2 -10 -10z"/>
<path d="M5570 11557 c0 -10 8 -20 18 -23 9 -3 29 -12 44 -20 14 -8 39 -14 55
-14 15 0 35 -4 43 -9 8 -6 18 -7 23 -4 10 6 -56 43 -78 43 -8 0 -15 5 -15 10
0 6 -15 10 -33 10 -18 0 -38 5 -45 12 -9 9 -12 8 -12 -5z"/>
<path d="M3790 11412 c-19 -2 -39 -8 -44 -13 -6 -5 -17 -9 -26 -9 -8 0 -32
-14 -52 -30 -20 -17 -51 -33 -70 -37 -18 -3 -47 -21 -65 -40 -17 -18 -34 -33
-38 -33 -8 0 -31 -19 -66 -54 -16 -15 -29 -25 -29 -22 0 6 -29 -16 -62 -46
-10 -10 -20 -18 -23 -18 -3 0 -19 -13 -36 -29 -37 -36 -24 -49 16 -15 15 13
31 24 34 24 3 0 20 11 36 25 45 37 48 39 80 55 17 8 32 17 35 20 10 10 45 31
63 36 9 4 17 10 17 15 0 5 4 9 9 9 5 0 35 16 67 35 32 19 71 35 87 35 23 0 85
35 107 61 3 3 13 10 24 16 17 9 17 10 -5 14 -13 2 -40 3 -59 1z"/>
<path d="M5885 11410 c-3 -6 1 -13 10 -16 19 -8 30 0 20 15 -8 14 -22 14 -30
1z"/>
<path d="M6140 11389 c0 -23 51 -101 79 -121 10 -7 20 -20 24 -28 4 -10 6 -8
6 8 1 12 -3 22 -9 22 -5 0 -10 7 -10 15 0 8 -4 15 -10 15 -5 0 -10 6 -10 14 0
24 -43 96 -57 96 -7 0 -13 -9 -13 -21z"/>
<path d="M5930 11380 c0 -5 12 -10 28 -10 21 0 24 2 12 10 -20 13 -40 13 -40
0z"/>
<path d="M5990 11360 c0 -6 7 -10 15 -10 8 0 15 2 15 4 0 2 -7 6 -15 10 -8 3
-15 1 -15 -4z"/>
<path d="M3611 11214 c0 -11 3 -14 6 -6 3 7 2 16 -1 19 -3 4 -6 -2 -5 -13z"/>
<path d="M3524 11182 c-10 -10 -34 -25 -51 -32 -18 -8 -33 -21 -33 -27 0 -18
27 -16 34 2 3 8 10 15 16 15 12 0 24 11 49 43 18 22 10 22 -15 -1z"/>
<path d="M6170 11189 c0 -5 5 -7 10 -4 6 3 10 8 10 11 0 2 -4 4 -10 4 -5 0
-10 -5 -10 -11z"/>
<path d="M3560 11151 c0 -5 -12 -12 -27 -16 -21 -5 -24 -8 -12 -16 10 -6 8 -9
-12 -9 -15 0 -32 -7 -39 -16 -11 -13 -10 -19 8 -37 19 -19 22 -19 22 -4 0 9 7
17 15 17 8 0 14 5 13 12 -2 6 6 16 18 22 23 12 54 41 54 50 0 3 -9 6 -20 6
-11 0 -20 -4 -20 -9z"/>
<path d="M5910 11101 c0 -11 49 -72 67 -84 40 -25 38 19 -3 58 -32 31 -64 44
-64 26z"/>
<path d="M3208 11053 c7 -3 16 -2 19 1 4 3 -2 6 -13 5 -11 0 -14 -3 -6 -6z"/>
<path d="M3070 10971 c0 -6 4 -13 10 -16 6 -3 7 1 4 9 -7 18 -14 21 -14 7z"/>
<path d="M3000 10930 c0 -5 5 -10 10 -10 6 0 10 5 10 10 0 6 -4 10 -10 10 -5
0 -10 -4 -10 -10z"/>
<path d="M3310 10904 c0 -8 5 -12 10 -9 6 3 10 10 10 16 0 5 -4 9 -10 9 -5 0
-10 -7 -10 -16z"/>
<path d="M7165 10800 c-3 -5 -1 -10 4 -10 6 0 11 5 11 10 0 6 -2 10 -4 10 -3
0 -8 -4 -11 -10z"/>
<path d="M6940 10726 c0 -2 7 -9 15 -16 9 -7 15 -8 15 -2 0 5 -7 12 -15 16 -8
3 -15 4 -15 2z"/>
<path d="M4281 9874 c0 -11 3 -14 6 -6 3 7 2 16 -1 19 -3 4 -6 -2 -5 -13z"/>
<path d="M4372 9555 c0 -16 2 -22 5 -12 2 9 2 23 0 30 -3 6 -5 -1 -5 -18z"/>
<path d="M4390 9452 c0 -11 4 -23 9 -27 6 -3 8 4 6 16 -6 30 -15 37 -15 11z"/>
<path d="M4410 9330 c0 -5 5 -10 10 -10 6 0 10 5 10 10 0 6 -4 10 -10 10 -5 0
-10 -4 -10 -10z"/>
<path d="M4411 9278 c1 -7 5 -24 9 -38 7 -22 8 -21 9 13 1 20 -3 37 -9 37 -5
0 -10 -6 -9 -12z"/>
<path d="M4417 9194 c-10 -10 -7 -303 3 -334 8 -24 12 45 16 240 1 68 -7 106
-19 94z"/>
<path d="M4442 8710 c0 -14 2 -19 5 -12 2 6 2 18 0 25 -3 6 -5 1 -5 -13z"/>
<path d="M7833 8714 c-4 -10 -13 -23 -20 -29 -7 -5 -13 -21 -12 -35 0 -14 1
-55 2 -92 2 -73 12 -96 23 -52 4 16 11 35 17 42 10 12 12 171 2 180 -2 3 -8
-4 -12 -14z"/>
<path d="M4164 8541 c-2 -2 -41 -5 -86 -6 -46 -2 -103 -8 -128 -15 -25 -6 -57
-12 -72 -11 -14 0 -32 -6 -38 -14 -14 -17 -35 -21 -25 -5 4 6 -7 10 -27 10
-24 0 -39 -7 -52 -25 -10 -14 -25 -25 -33 -25 -8 0 -11 -4 -8 -10 3 -5 21 -10
38 -11 32 0 32 0 10 -16 -17 -11 -20 -19 -13 -33 14 -26 66 -45 84 -31 10 9
32 9 86 0 55 -9 77 -10 91 -1 10 7 31 12 46 12 32 0 56 12 51 26 -6 17 7 17
44 0 34 -16 37 -16 56 -1 11 10 18 27 16 41 -1 13 2 24 7 24 5 0 9 -4 9 -10 0
-5 11 -10 25 -10 14 0 35 -10 47 -22 14 -14 23 -18 26 -10 2 7 8 12 13 12 6 0
7 -4 4 -10 -3 -6 1 -7 9 -4 11 4 16 19 16 46 0 46 14 47 38 3 9 -17 17 -31 17
-32 1 -7 56 -10 60 -4 6 11 -24 71 -36 71 -5 0 -9 5 -9 11 0 19 -26 37 -54 37
-16 0 -31 4 -35 10 -6 9 -167 12 -177 3z m16 -141 c0 -5 -4 -10 -10 -10 -5 0
-10 5 -10 10 0 6 5 10 10 10 6 0 10 -4 10 -10z"/>
<path d="M3555 8470 c-3 -5 3 -10 14 -10 12 0 21 5 21 10 0 6 -6 10 -14 10 -8
0 -18 -4 -21 -10z"/>
<path d="M3496 8451 c-18 -7 -18 -8 -2 -14 27 -11 36 -8 36 8 0 16 -5 17 -34
6z"/>
<path d="M3504 8398 c-3 -4 4 -8 15 -8 12 0 21 4 21 8 0 5 -7 9 -15 9 -9 0
-18 -4 -21 -9z"/>
<path d="M3436 8378 c3 -5 10 -6 15 -3 13 9 11 12 -6 12 -8 0 -12 -4 -9 -9z"/>
<path d="M4756 8365 c4 -8 10 -15 15 -15 5 0 9 -7 9 -15 0 -8 5 -15 11 -15 5
0 8 4 4 9 -3 5 0 13 6 16 6 4 0 13 -16 21 -34 17 -36 17 -29 -1z"/>
<path d="M4805 8310 c-3 -5 -1 -10 4 -10 6 0 11 5 11 10 0 6 -2 10 -4 10 -3 0
-8 -4 -11 -10z"/>
<path d="M4055 8170 c-4 -6 18 -10 57 -10 41 0 71 -5 84 -15 10 -8 33 -15 51
-15 17 0 35 -4 38 -10 3 -5 17 -10 31 -10 13 0 24 -4 24 -10 0 -5 11 -10 24
-10 13 0 29 -6 35 -14 6 -8 26 -20 44 -27 49 -20 177 -157 177 -188 0 -6 4
-11 9 -11 5 0 11 -10 14 -22 3 -13 15 -59 27 -103 17 -65 20 -98 16 -174 -3
-52 -10 -99 -16 -105 -5 -5 -10 -29 -10 -52 0 -24 -4 -46 -10 -49 -5 -3 -10
-15 -10 -26 0 -10 -4 -27 -9 -37 -5 -9 -22 -44 -38 -77 -15 -33 -31 -61 -35
-63 -5 -2 -8 -8 -8 -13 0 -11 -3 -15 -55 -73 -19 -22 -35 -44 -35 -48 0 -4 -6
-8 -13 -8 -7 0 -21 -12 -32 -26 -11 -15 -22 -29 -25 -33 -3 -4 -16 -12 -30
-18 -24 -11 -24 -12 -3 -12 20 -1 47 16 89 57 7 6 16 12 21 12 4 0 17 12 28
27 11 15 28 34 38 42 9 9 17 21 17 27 0 7 4 14 9 16 13 5 61 86 61 103 0 8 5
15 10 15 6 0 10 8 10 18 0 10 4 22 9 27 4 6 17 35 27 65 10 30 22 60 26 66 14
19 14 367 0 372 -15 5 -16 48 -2 57 13 8 13 55 1 55 -5 0 -11 -5 -13 -12 -6
-18 -22 -3 -48 46 -20 40 -108 136 -125 136 -3 0 -18 11 -33 25 -15 14 -32 25
-39 25 -7 0 -13 5 -13 10 0 6 -9 10 -19 10 -11 0 -23 5 -26 10 -3 6 -16 10
-29 10 -12 0 -26 4 -31 9 -37 32 -254 57 -270 31z"/>
<path d="M5985 8150 c-63 -9 -131 -22 -200 -39 -22 -6 -53 -13 -70 -17 -16 -4
-36 -13 -43 -21 -7 -7 -19 -13 -27 -13 -16 0 -95 -40 -113 -57 -7 -7 -17 -13
-21 -13 -17 0 -131 -117 -131 -134 0 -12 -7 -16 -22 -14 -13 2 -23 -1 -23 -7
0 -5 -4 -15 -8 -22 -4 -6 -3 -23 3 -37 9 -26 4 -56 -10 -56 -8 0 -24 -124 -24
-190 1 -68 16 -180 25 -186 5 -3 9 -12 9 -21 0 -8 6 -29 13 -46 8 -18 20 -50
26 -72 21 -67 55 -135 69 -135 6 0 12 -9 12 -20 0 -11 5 -20 10 -20 6 0 10 -4
10 -10 0 -10 95 -110 105 -110 3 0 13 -6 21 -12 8 -7 20 -17 27 -23 7 -5 26
-17 42 -25 17 -8 32 -17 35 -20 12 -12 82 -40 100 -40 11 0 20 -4 20 -10 0 -5
21 -10 46 -10 27 0 43 4 39 10 -3 6 -24 10 -46 10 -21 0 -39 5 -39 10 0 6 -11
10 -24 10 -13 0 -29 7 -36 15 -7 8 -20 15 -29 15 -9 0 -29 11 -45 25 -16 14
-33 25 -37 25 -10 0 -129 118 -154 154 -11 15 -26 34 -32 41 -7 8 -13 21 -13
29 0 9 -3 16 -8 16 -4 0 -16 17 -26 38 -10 20 -22 45 -27 54 -5 10 -9 29 -9
42 0 14 -4 28 -10 31 -5 3 -10 24 -10 45 0 21 5 42 10 45 6 3 10 13 10 21 0 8
-4 14 -10 14 -5 0 -10 -7 -10 -15 0 -8 -5 -15 -11 -15 -7 0 -9 43 -5 133 5
147 14 217 27 217 5 0 9 9 9 20 0 26 15 54 58 104 6 8 12 18 12 21 0 16 120
115 139 115 6 0 11 5 11 10 0 6 9 10 19 10 11 0 23 5 26 10 3 6 17 10 31 10
13 0 24 5 24 10 0 6 13 10 29 10 16 0 34 6 40 14 16 19 116 29 291 29 154 0
252 -11 272 -31 7 -7 27 -12 44 -12 18 0 36 -4 39 -10 3 -5 17 -10 30 -10 13
0 25 -3 27 -7 2 -5 21 -17 43 -28 22 -11 55 -29 72 -40 38 -23 45 -50 11 -40
-22 7 -23 7 -4 -11 13 -14 20 -16 23 -6 3 6 9 12 15 12 19 0 77 -73 94 -117
15 -39 39 -55 56 -38 22 22 -58 174 -99 190 -15 5 -15 7 -3 15 12 8 9 10 -11
10 -14 0 -35 9 -47 20 -12 11 -26 20 -32 20 -5 0 -10 5 -10 11 0 5 -4 8 -8 5
-5 -3 -35 8 -68 24 -32 17 -69 30 -81 30 -13 0 -23 5 -23 10 0 6 -20 10 -44
10 -25 0 -48 5 -51 10 -3 6 -30 10 -58 10 -29 0 -70 7 -92 15 -44 16 -79 17
-170 5z"/>
<path d="M3608 8123 c7 -3 16 -2 19 1 4 3 -2 6 -13 5 -11 0 -14 -3 -6 -6z"/>
<path d="M3525 8100 c-3 -5 3 -10 14 -10 12 0 21 5 21 10 0 6 -6 10 -14 10 -8
0 -18 -4 -21 -10z"/>
<path d="M3485 8080 c-8 -13 9 -20 24 -11 10 6 9 10 -3 14 -8 3 -18 2 -21 -3z"/>
<path d="M3380 8013 c-69 -49 -83 -64 -116 -129 l-21 -41 24 -23 c13 -13 22
-29 19 -37 -9 -24 6 -43 33 -43 25 0 27 3 23 30 -3 21 1 35 16 47 21 19 37 99
21 108 -10 7 -69 -53 -69 -70 0 -6 -7 -20 -15 -31 -15 -19 -15 -19 -9 1 10 33
28 68 49 95 32 39 98 104 125 122 23 15 23 17 5 17 -11 0 -49 -20 -85 -46z"/>
<path d="M6535 7944 c17 -15 31 -21 33 -14 5 13 -27 39 -48 40 -9 0 -4 -10 15
-26z"/>
<path d="M7740 7936 c0 -2 7 -6 15 -10 8 -3 15 -1 15 4 0 6 -7 10 -15 10 -8 0
-15 -2 -15 -4z"/>
<path d="M7780 7930 c0 -5 5 -10 11 -10 5 0 7 5 4 10 -3 6 -8 10 -11 10 -2 0
-4 -4 -4 -10z"/>
<path d="M5880 7909 c-113 -30 -133 -43 -85 -55 23 -6 24 -10 22 -68 -2 -77
19 -120 78 -158 71 -46 120 -37 188 34 36 39 37 42 37 114 0 57 3 74 14 74 8
0 17 -6 19 -12 4 -10 6 -10 6 0 1 6 6 12 12 12 14 0 129 -117 129 -131 0 -6
-9 -24 -21 -40 -19 -27 -19 -29 -2 -29 10 0 27 7 37 15 10 8 22 12 27 10 15
-10 -17 -55 -49 -71 -48 -23 -30 -38 36 -30 31 4 60 11 66 15 6 5 22 11 36 13
18 2 28 12 35 36 6 20 16 32 26 32 15 0 16 5 10 28 -9 30 2 54 29 65 11 4 10
6 -5 7 -18 1 -18 2 5 16 24 14 24 15 3 11 -13 -3 -23 -1 -23 4 0 5 6 9 13 9
26 0 -19 20 -46 20 -16 0 -26 4 -22 10 4 6 -6 10 -24 10 -18 0 -34 7 -40 18
-9 15 -10 14 -11 -8 0 -20 -2 -22 -10 -10 -9 14 -15 7 -11 -14 3 -15 -67 2
-97 23 -16 11 -39 22 -53 24 -13 2 -31 6 -39 9 -80 28 -218 36 -290 17z m66
-94 c18 -18 10 -35 -17 -35 -14 0 -19 7 -19 25 0 28 14 32 36 10z m104 -65 c0
-5 -4 -10 -10 -10 -5 0 -10 5 -10 10 0 6 5 10 10 10 6 0 10 -4 10 -10z"/>
<path d="M4005 7904 c-11 -2 -45 -9 -75 -15 -30 -5 -64 -14 -75 -19 -11 -5
-37 -11 -57 -15 -21 -3 -38 -10 -38 -15 0 -6 -9 -10 -19 -10 -11 0 -23 -4 -26
-10 -3 -5 -13 -10 -21 -10 -25 0 -128 -95 -119 -111 4 -5 17 -6 30 -3 20 5 25
1 31 -20 3 -14 12 -26 20 -26 8 0 14 -7 14 -15 0 -8 7 -15 15 -15 8 0 24 -5
34 -11 10 -7 30 -9 44 -5 27 6 27 6 7 26 -11 11 -26 20 -33 20 -14 0 -39 35
-30 44 4 3 17 6 29 6 15 0 25 8 30 22 7 22 37 69 60 94 6 7 28 17 49 23 47 13
53 7 53 -60 0 -36 6 -57 28 -88 40 -54 72 -71 138 -71 50 0 59 3 90 34 41 41
69 119 60 164 -5 25 -3 32 10 32 9 0 16 -4 16 -8 0 -5 16 -14 35 -22 19 -8 35
-20 35 -27 0 -7 4 -13 9 -13 16 0 20 -54 5 -77 -20 -31 -18 -40 11 -45 19 -4
25 -1 25 13 0 23 13 24 30 4 11 -13 10 -14 -4 -9 -9 3 -16 2 -16 -4 0 -5 16
-10 35 -9 41 1 43 12 13 64 -34 57 -106 123 -179 162 -36 19 -63 24 -144 27
-55 1 -109 1 -120 -2z m55 -94 c0 -11 -7 -20 -15 -20 -8 0 -15 9 -15 20 0 11
7 20 15 20 8 0 15 -9 15 -20z m370 -110 c0 -5 -4 -10 -10 -10 -5 0 -10 5 -10
10 0 6 5 10 10 10 6 0 10 -4 10 -10z"/>
<path d="M4763 7872 c-25 -2 -33 -8 -33 -23 0 -20 33 -26 58 -10 25 16 9 36
-25 33z"/>
<path d="M6476 7855 c4 -8 10 -15 15 -15 4 0 6 7 3 15 -4 8 -10 15 -15 15 -4
0 -6 -7 -3 -15z"/>
<path d="M5651 7791 c-34 -32 -61 -62 -61 -66 0 -5 -6 -16 -14 -24 -8 -9 -17
-28 -21 -42 l-6 -26 48 12 c46 12 49 14 68 70 14 38 34 70 62 96 l42 39 -29 0
c-22 0 -44 -15 -89 -59z"/>
<path d="M7818 7842 c-25 -5 -29 -29 -8 -54 11 -13 19 -17 20 -10 0 6 8 12 18
12 12 0 13 -3 5 -8 -10 -7 -10 -14 0 -35 17 -38 25 -34 25 14 1 33 -3 42 -19
46 -12 3 -16 9 -11 12 14 9 -9 27 -30 23z"/>
<path d="M6538 7833 c6 -2 18 -2 25 0 6 3 1 5 -13 5 -14 0 -19 -2 -12 -5z"/>
<path d="M3016 7794 c-3 -9 -6 -24 -6 -35 0 -17 8 -19 78 -19 l77 0 -25 20
c-14 11 -34 20 -46 20 -11 0 -29 7 -40 15 -25 19 -31 18 -38 -1z"/>
<path d="M7086 7763 c-6 -14 -5 -15 5 -6 7 7 10 15 7 18 -3 3 -9 -2 -12 -12z"/>
<path d="M7590 7771 c0 -5 7 -12 16 -15 14 -5 15 -4 4 9 -14 17 -20 19 -20 6z"/>
<path d="M3200 7750 c0 -5 4 -10 8 -10 5 0 8 -18 7 -40 -2 -57 12 -178 26
-225 21 -72 42 -130 51 -139 4 -6 8 -20 8 -33 0 -13 5 -23 10 -23 6 0 10 -7
10 -15 0 -16 48 -100 88 -154 38 -51 97 -106 164 -152 67 -46 88 -55 88 -40 0
6 -5 11 -10 11 -6 0 -34 17 -63 39 -82 60 -158 142 -197 210 -8 14 -18 28 -22
29 -5 2 -8 12 -8 22 0 10 -4 22 -10 25 -5 3 -10 15 -10 26 0 10 -4 19 -10 19
-5 0 -10 11 -10 25 0 14 -4 25 -10 25 -5 0 -10 13 -10 28 0 15 -5 33 -10 38
-17 17 -34 122 -36 224 -2 52 -3 101 -3 108 -1 14 -51 17 -51 2z"/>
<path d="M7645 7701 c1 -31 7 -57 14 -59 6 -2 9 -8 5 -13 -3 -5 -1 -9 4 -9 8
0 13 12 27 78 2 6 -3 12 -11 12 -8 0 -14 -8 -14 -17 0 -27 -18 -2 -23 32 -2
17 -3 5 -2 -24z"/>
<path d="M7687 7743 c-14 -13 -7 -23 16 -22 17 1 18 2 4 6 -9 2 -15 9 -12 14
7 10 1 12 -8 2z"/>
<path d="M6780 7717 c-3 -180 -9 -278 -18 -302 -6 -16 -16 -50 -23 -75 -26
-100 -36 -124 -93 -224 -14 -26 -41 -58 -98 -120 -25 -28 -43 -55 -40 -61 4
-5 8 -2 10 8 2 9 9 17 15 17 28 1 177 185 177 218 0 5 9 26 19 48 51 106 91
284 91 409 0 74 -2 81 -20 82 -11 1 -20 1 -20 0z"/>
<path d="M6958 7711 c-1 -6 -27 -12 -56 -14 -29 -3 -56 -8 -60 -12 -10 -10 20
-25 53 -25 17 -1 47 -3 68 -6 42 -6 56 10 37 45 -11 22 -36 28 -42 12z"/>
<path d="M7871 7664 c0 -11 3 -14 6 -6 3 7 2 16 -1 19 -3 4 -6 -2 -5 -13z"/>
<path d="M7899 7550 c-2 -14 -9 -25 -16 -25 -6 0 -15 -3 -19 -7 -10 -11 18
-10 34 1 8 4 12 19 10 32 l-4 24 -5 -25z"/>
<path d="M7860 7490 c0 -5 5 -10 10 -10 6 0 10 5 10 10 0 6 -4 10 -10 10 -5 0
-10 -4 -10 -10z"/>
<path d="M4580 7460 c0 -19 3 -21 12 -12 9 9 9 15 0 24 -9 9 -12 7 -12 -12z"/>
<path d="M5410 7430 c0 -5 7 -10 15 -10 8 0 15 5 15 10 0 6 -7 10 -15 10 -8 0
-15 -4 -15 -10z"/>
<path d="M6480 6919 c0 -5 5 -7 10 -4 6 3 10 8 10 11 0 2 -4 4 -10 4 -5 0 -10
-5 -10 -11z"/>
<path d="M3670 6900 c0 -5 7 -10 15 -10 8 0 15 5 15 10 0 6 -7 10 -15 10 -8 0
-15 -4 -15 -10z"/>
<path d="M4320 6900 c0 -5 5 -10 11 -10 5 0 7 5 4 10 -3 6 -8 10 -11 10 -2 0
-4 -4 -4 -10z"/>
<path d="M6445 6900 c-3 -5 -2 -10 4 -10 5 0 13 5 16 10 3 6 2 10 -4 10 -5 0
-13 -4 -16 -10z"/>
<path d="M3723 6873 c9 -2 23 -2 30 0 6 3 -1 5 -18 5 -16 0 -22 -2 -12 -5z"/>
<path d="M4275 6870 c3 -5 12 -7 20 -3 21 7 19 13 -6 13 -11 0 -18 -4 -14 -10z"/>
<path d="M3780 6850 c20 -13 40 -13 40 0 0 6 -12 10 -27 10 -22 0 -25 -2 -13
-10z"/>
<path d="M4215 6850 c-3 -5 -2 -10 4 -10 5 0 13 5 16 10 3 6 2 10 -4 10 -5 0
-13 -4 -16 -10z"/>
<path d="M6370 6850 c0 -5 7 -7 15 -4 8 4 15 8 15 10 0 2 -7 4 -15 4 -8 0 -15
-4 -15 -10z"/>
<path d="M3870 6829 c0 -5 19 -9 42 -9 49 0 47 5 -4 13 -21 3 -38 2 -38 -4z"/>
<path d="M4133 6823 c9 -2 23 -2 30 0 6 3 -1 5 -18 5 -16 0 -22 -2 -12 -5z"/>
<path d="M6268 6803 c7 -3 16 -2 19 1 4 3 -2 6 -13 5 -11 0 -14 -3 -6 -6z"/>
<path d="M5920 6760 c0 -6 40 -10 99 -10 56 0 103 4 106 10 4 6 -32 10 -99 10
-64 0 -106 -4 -106 -10z"/>
<path d="M7475 6708 c-11 -7 -33 -24 -50 -40 -27 -25 -28 -28 -9 -28 22 0 89
46 98 68 7 15 -12 15 -39 0z"/>
<path d="M4703 6526 c-13 -15 -16 -35 -13 -91 1 -22 4 -34 7 -27 2 6 15 12 27
12 12 0 26 4 32 8 12 11 86 32 112 32 35 0 36 20 1 51 -29 25 -40 29 -93 29
-38 -1 -65 -6 -73 -14z"/>
<path d="M5171 6512 c-65 -54 -21 -87 127 -93 l81 -4 6 27 c8 33 -2 69 -24 85
-9 7 -47 13 -86 13 -63 0 -74 -3 -104 -28z"/>
<path d="M5515 6410 c-3 -5 -15 -10 -26 -10 -12 0 -19 -5 -16 -12 7 -22 67 2
67 26 0 10 -18 7 -25 -4z"/>
<path d="M5445 6370 c-3 -5 1 -10 10 -10 9 0 13 5 10 10 -3 6 -8 10 -10 10 -2
0 -7 -4 -10 -10z"/>
<path d="M5490 5745 c-4 -5 -11 -20 -14 -32 -7 -21 -61 -48 -70 -34 -3 4 -21
5 -40 3 -20 -2 -34 -8 -31 -12 3 -4 -21 -11 -53 -14 -109 -13 -105 -14 -113
19 -10 37 -52 46 -47 10 2 -16 -3 -21 -29 -23 -18 -2 -33 -7 -33 -11 0 -5 -34
-9 -75 -9 -42 -1 -74 2 -71 6 2 4 -15 9 -39 10 -24 1 -46 -2 -49 -7 -3 -4 -20
-6 -38 -4 -18 3 -69 8 -113 11 -71 6 -80 9 -80 27 0 11 -4 26 -8 33 -10 14
-83 16 -92 2 -3 -5 -21 -10 -39 -10 -17 0 -36 -4 -41 -9 -6 -5 -52 -11 -104
-13 -61 -3 -96 -9 -99 -16 -2 -7 -10 -12 -18 -12 -9 0 -14 -11 -14 -29 0 -29
1 -29 33 -20 33 10 114 2 122 -11 4 -6 105 -13 165 -11 68 2 194 0 200 -4 20
-12 85 -15 110 -5 21 9 33 9 50 0 15 -8 25 -8 34 -1 9 7 23 7 47 0 19 -5 97
-10 174 -10 81 1 153 -4 172 -11 21 -8 36 -8 45 -2 16 12 118 6 118 -7 0 -5 6
-9 14 -9 16 0 31 -34 22 -49 -4 -5 -4 -16 -1 -24 5 -12 12 -12 53 2 26 9 49
19 50 24 2 4 12 7 23 7 10 0 19 5 19 10 0 6 11 10 25 10 14 0 25 5 25 10 0 6
7 10 15 10 9 0 40 15 69 34 30 19 67 36 83 38 19 2 29 9 31 24 4 30 -31 56
-80 59 -77 6 -138 17 -138 26 0 5 -16 9 -35 9 -19 0 -35 4 -35 9 0 13 -90 18
-100 6z"/>
<path d="M5453 5451 c-10 -16 -9 -18 7 -14 11 3 16 11 13 19 -7 18 -6 18 -20
-5z"/>
<path d="M3880 4695 c0 -14 4 -25 9 -25 5 0 7 -9 4 -20 -4 -15 0 -20 15 -20
12 0 23 -8 27 -19 3 -11 17 -27 31 -36 29 -19 57 -41 131 -107 29 -27 60 -48
67 -48 8 0 16 -3 18 -7 2 -5 21 -18 43 -30 22 -12 39 -25 37 -29 -2 -3 7 -12
20 -19 82 -46 141 -75 151 -75 7 0 27 -14 46 -30 18 -17 40 -30 47 -30 22 0
28 -3 42 -17 7 -7 19 -13 27 -13 7 0 15 -6 18 -13 3 -7 23 -19 46 -26 22 -6
50 -21 60 -32 15 -16 39 -23 98 -30 43 -4 98 -13 123 -18 66 -14 139 -22 115
-12 -13 5 8 8 55 7 41 -1 81 -5 87 -9 7 -4 21 -4 30 1 17 9 101 9 133 1 8 -2
19 6 24 18 5 11 27 27 48 34 22 7 46 25 60 44 12 18 27 31 33 29 6 -3 26 9 45
26 18 16 38 30 43 30 5 0 22 10 39 21 19 14 27 27 23 37 -3 9 -3 13 1 9 4 -4
18 2 30 14 14 13 31 20 43 16 15 -4 31 7 61 39 23 25 50 44 63 45 12 0 16 3
10 6 -7 2 -13 9 -13 14 0 6 4 8 9 5 5 -3 20 6 32 20 13 14 34 29 47 34 12 5
22 16 22 25 0 21 -16 19 -33 -5 -8 -12 -18 -20 -23 -18 -19 5 -94 -13 -94 -22
0 -6 -10 -10 -22 -10 -13 0 -48 -12 -78 -27 -30 -14 -64 -30 -75 -35 -17 -6
-206 -20 -272 -19 -13 1 -23 -4 -23 -10 0 -6 -29 -9 -77 -8 -82 3 -156 -8
-148 -21 3 -4 -10 -4 -29 0 -18 4 -41 3 -50 -2 -9 -5 -38 -10 -64 -10 -72 -1
-254 9 -282 15 -14 4 -53 11 -87 16 -34 5 -74 16 -90 24 -15 8 -43 17 -62 21
-18 3 -60 24 -92 46 -32 22 -68 40 -79 40 -11 0 -20 4 -20 9 0 5 -11 12 -25
15 -14 4 -34 15 -45 26 -11 11 -27 20 -35 20 -8 0 -15 4 -15 9 0 5 -16 16 -35
25 -20 10 -33 21 -30 26 3 4 -4 6 -14 3 -13 -3 -23 2 -31 16 -9 18 -52 43 -95
56 -45 14 -55 18 -55 26 0 5 -4 9 -10 9 -5 0 -10 -11 -10 -25z"/>
<path d="M6720 4437 c0 -18 4 -37 9 -42 39 -40 55 -418 25 -576 -29 -153 -94
-381 -147 -513 -29 -74 -62 -186 -92 -316 -15 -63 -37 -153 -50 -200 -30 -114
-56 -234 -106 -485 -60 -309 -67 -337 -129 -570 -25 -96 -31 -132 -26 -180 4
-44 2 -65 -9 -79 -8 -11 -16 -29 -16 -40 -1 -12 -5 4 -9 35 -10 82 -60 190
-182 394 -152 254 -231 363 -437 602 -74 86 -128 127 -243 184 -55 28 -71 25
-63 -9 5 -24 2 -30 -22 -41 -37 -17 -164 -39 -288 -50 -55 -5 -108 -12 -117
-16 -9 -4 -22 -4 -28 0 -13 8 56 62 108 85 l34 15 -42 28 c-48 31 -65 34 -74
11 -8 -20 1 -34 20 -34 27 0 14 -15 -33 -40 -27 -14 -55 -31 -63 -39 -8 -7
-28 -20 -45 -27 -33 -13 -91 -77 -185 -201 -101 -133 -213 -303 -224 -338 -6
-22 -4 -23 78 -64 29 -14 82 -58 133 -110 50 -51 90 -85 100 -83 11 2 14 -1
10 -12 -4 -10 -1 -16 7 -16 8 0 61 -46 118 -103 94 -92 107 -109 130 -172 40
-108 41 -135 8 -198 -15 -30 -44 -75 -64 -101 -32 -42 -44 -66 -33 -66 2 0 18
7 36 16 42 21 50 11 26 -32 -31 -58 -61 -85 -88 -79 -16 4 -29 -1 -44 -17 -22
-24 -62 -134 -82 -228 -7 -30 -16 -72 -21 -92 -25 -95 -29 -117 -39 -173 -6
-33 -18 -98 -26 -145 -20 -111 -33 -186 -40 -235 -4 -22 -9 -50 -12 -62 -5
-21 -1 -23 31 -23 25 0 36 4 36 15 0 8 5 15 10 15 6 0 10 7 10 15 0 28 303
316 317 301 13 -12 -71 -101 -277 -294 l-55 -52 325 1 c179 1 334 5 345 9 19
7 18 9 -8 19 -22 9 -27 15 -22 31 4 11 2 20 -4 20 -22 0 -10 18 17 25 l27 8
-25 6 c-23 6 -24 10 -23 76 1 52 -3 75 -15 88 -13 14 -13 18 -2 15 23 -5 23
30 0 37 -16 5 -19 10 -10 20 7 8 9 19 5 26 -11 17 13 28 43 20 23 -6 26 -12
29 -67 6 -116 9 -135 23 -145 12 -7 11 -10 -7 -15 -24 -7 -32 -26 -10 -23 32
4 39 -1 33 -26 -4 -14 -2 -25 2 -25 12 0 9 -63 -3 -73 -6 -5 -2 -6 8 -3 11 3
20 0 23 -9 5 -13 41 -15 229 -15 l222 0 -4 28 c-6 34 -24 72 -35 72 -4 0 -8
-16 -8 -35 0 -19 -4 -35 -8 -35 -10 0 -42 65 -42 86 0 8 -11 57 -25 107 -14
51 -30 108 -35 127 -12 44 -57 196 -81 273 -26 83 -37 154 -45 297 -4 81 -13
143 -26 180 -10 30 -21 62 -24 71 -3 9 2 23 10 32 9 9 16 33 16 56 0 28 7 49
23 66 12 14 33 46 47 70 66 116 96 164 134 215 23 30 59 87 80 125 73 132 78
139 90 123 6 -8 27 -18 46 -22 34 -6 120 -76 120 -97 0 -5 15 -40 34 -77 55
-108 67 -144 62 -182 -3 -19 -8 -99 -11 -177 -5 -138 1 -175 24 -136 13 23 14
7 2 -54 -5 -26 -15 -77 -21 -113 -16 -88 -28 -143 -104 -450 -36 -146 -76
-317 -91 -380 -14 -63 -30 -127 -34 -142 l-9 -28 2124 0 2124 0 0 1354 0 1354
-57 17 c-32 9 -67 21 -78 25 -23 9 -159 51 -225 70 -68 19 -147 48 -209 76
-31 14 -69 32 -86 39 -50 21 -97 42 -150 65 -27 12 -59 26 -70 30 -11 5 -49
22 -85 38 -36 16 -92 42 -125 57 -33 15 -73 33 -90 40 -16 7 -57 25 -90 40
-33 15 -80 36 -105 47 -46 20 -96 43 -210 96 -36 16 -83 37 -105 47 -58 24
-154 70 -375 178 -186 91 -284 137 -395 187 -98 43 -160 72 -177 81 -10 5 -24
9 -31 9 -12 0 -116 79 -186 142 -31 28 -101 86 -161 135 -8 7 -48 39 -89 72
-72 58 -169 159 -224 234 -34 46 -47 47 -47 4z m-1096 -2256 c3 -5 -1 -14 -10
-21 -11 -10 -18 -10 -27 -1 -9 9 -9 14 3 21 19 12 27 12 34 1z m-187 -143 c-3
-7 -5 -2 -5 12 0 14 2 19 5 13 2 -7 2 -19 0 -25z m-941 -14 c118 -49 384 -177
424 -204 14 -10 52 -32 85 -50 125 -69 162 -91 208 -123 14 -10 31 -16 37 -12
15 9 12 25 -5 25 -8 0 -15 5 -15 10 0 6 -7 10 -15 10 -8 0 -15 6 -15 14 0 7
-7 27 -15 42 -17 33 -20 64 -5 64 6 0 10 -7 10 -15 0 -8 7 -15 15 -15 25 0 17
16 -35 70 -28 29 -49 54 -47 56 13 14 175 -102 205 -146 25 -38 29 -58 7 -40
-8 7 -16 9 -16 4 -1 -5 -2 -13 -4 -19 -1 -5 -3 -25 -3 -42 -1 -21 -7 -33 -16
-33 -29 0 -24 -17 20 -71 84 -100 98 -155 21 -82 -23 22 -60 53 -82 69 -22 16
-50 39 -62 50 -100 98 -373 263 -633 382 -47 22 -91 47 -99 56 -17 20 -13 20
35 0z m904 -19 c0 -19 -4 -35 -10 -35 -11 0 -13 30 -4 54 10 25 14 19 14 -19z
m-53 -107 c-3 -7 -5 -2 -5 12 0 14 2 19 5 13 2 -7 2 -19 0 -25z m-30 -38 c3
-11 12 -20 19 -20 8 0 14 -7 14 -17 0 -15 -1 -15 -18 0 -10 10 -24 17 -30 17
-7 0 -12 9 -12 20 0 11 5 20 11 20 6 0 13 -9 16 -20z m-117 -404 c0 -3 -4 -8
-10 -11 -5 -3 -10 -1 -10 4 0 6 5 11 10 11 6 0 10 -2 10 -4z m957 -88 c-3 -8
-6 -5 -6 6 -1 11 2 17 5 13 3 -3 4 -12 1 -19z m-1077 -93 c15 -18 6 -45 -14
-45 -22 0 -38 34 -24 48 16 16 23 15 38 -3z m130 -2 c-1 -10 -12 -36 -26 -58
-13 -22 -30 -52 -36 -67 -7 -16 -16 -28 -20 -28 -4 0 -8 -7 -8 -15 0 -21 5
-19 34 10 32 32 38 31 59 -5 17 -28 17 -29 1 -23 -12 4 -15 3 -10 -6 5 -7 1
-20 -8 -30 -10 -11 -14 -25 -9 -37 6 -17 5 -17 -10 -5 -9 7 -17 12 -18 10 -6
-47 -5 -89 1 -89 5 0 17 14 27 30 9 17 23 30 30 30 7 0 13 9 13 20 0 11 7 20
15 20 18 0 19 -14 3 -32 -7 -7 -20 -26 -28 -43 -8 -16 -17 -32 -20 -35 -3 -3
-31 -49 -63 -102 -80 -133 -86 -136 -85 -51 2 95 -7 144 -31 163 -20 14 -20
19 -10 80 13 74 65 168 132 238 44 44 67 53 67 25z m65 -223 c3 -5 1 -10 -4
-10 -6 0 -11 5 -11 10 0 6 2 10 4 10 3 0 8 -4 11 -10z m-508 -287 c-3 -10 -5
-4 -5 12 0 17 2 24 5 18 2 -7 2 -21 0 -30z m-19 -72 c-15 -5 -21 7 -13 26 7
17 8 17 15 -2 4 -11 3 -22 -2 -24z m405 13 c-3 -9 0 -20 8 -24 17 -11 12 -16
-28 -25 -39 -8 -42 3 -11 45 22 30 42 32 31 4z m-481 -66 c-7 -7 -13 -23 -13
-37 -2 -23 -2 -24 -6 -4 -5 23 15 69 25 59 3 -4 0 -12 -6 -18z m498 -18 c0
-13 -40 -13 -60 0 -11 7 -5 10 23 10 20 0 37 -4 37 -10z m5 -39 c3 -5 0 -13
-6 -17 -9 -5 -7 -11 6 -20 10 -7 15 -20 12 -29 -4 -8 -2 -15 3 -15 6 0 10 -7
10 -15 0 -17 -55 -21 -65 -5 -3 6 1 10 9 10 27 0 28 20 1 30 -22 8 -25 13 -16
24 8 10 9 16 1 21 -15 9 -2 25 20 25 10 0 21 -4 25 -9z m-25 -141 c0 -5 -5
-10 -11 -10 -5 0 -7 5 -4 10 3 6 8 10 11 10 2 0 4 -4 4 -10z m70 1 c0 -12 -37
-24 -50 -16 -20 12 -10 25 20 25 17 0 30 -4 30 -9z m-45 -231 c-3 -5 -11 -10
-16 -10 -6 0 -7 5 -4 10 3 6 11 10 16 10 6 0 7 -4 4 -10z"/>
<path d="M5085 1050 c-23 -44 -18 -55 10 -22 26 31 32 52 15 52 -5 0 -16 -13
-25 -30z"/>
<path d="M5041 954 c0 -11 3 -14 6 -6 3 7 2 16 -1 19 -3 4 -6 -2 -5 -13z"/>
<path d="M3364 4403 c-81 -79 -342 -303 -353 -303 -4 0 -16 -8 -27 -18 -10
-10 -39 -32 -64 -49 -25 -17 -61 -45 -80 -62 -19 -16 -53 -39 -75 -50 -35 -17
-57 -26 -140 -61 -50 -20 -170 -75 -290 -131 -33 -15 -85 -37 -115 -49 -30
-11 -64 -25 -75 -30 -11 -5 -54 -21 -95 -35 -161 -58 -264 -96 -335 -125 -11
-4 -46 -20 -78 -34 -32 -14 -60 -26 -62 -26 -2 0 -35 -14 -72 -31 -38 -17
-100 -44 -140 -60 -39 -15 -92 -37 -117 -49 -111 -49 -191 -84 -231 -100 -11
-5 -45 -19 -75 -32 -52 -23 -88 -35 -185 -60 -22 -6 -60 -16 -85 -23 -25 -7
-65 -18 -90 -25 -25 -7 -56 -16 -70 -20 -14 -5 -72 -20 -130 -35 -101 -26
-296 -86 -353 -109 l-27 -11 0 -1437 0 -1438 2200 0 c1340 0 2200 4 2200 9 0
5 -9 49 -20 98 -33 149 -122 556 -131 598 -9 47 -114 484 -128 535 -6 19 -22
82 -37 140 -30 118 -43 165 -55 198 -5 13 -9 38 -9 56 0 19 -13 85 -29 147
-40 154 -37 142 -61 249 -57 254 -124 526 -164 660 -37 123 -96 293 -115 327
-6 12 -17 45 -25 75 -8 29 -24 87 -35 129 -11 42 -50 166 -85 275 -99 305
-119 406 -119 594 1 160 14 242 48 294 18 27 13 66 -9 66 -7 0 -35 -21 -62
-47z"/>
<path d="M3460 4308 c0 -16 5 -28 10 -28 13 0 13 20 0 40 -8 12 -10 9 -10 -12z"/>
<path d="M6682 4310 c0 -14 2 -19 5 -12 2 6 2 18 0 25 -3 6 -5 1 -5 -13z"/>
<path d="M5805 4310 c3 -5 8 -10 11 -10 2 0 4 5 4 10 0 6 -5 10 -11 10 -5 0
-7 -4 -4 -10z"/>
<path d="M3510 4156 c0 -70 263 -401 395 -496 25 -18 28 -21 -115 130 -138
146 -170 182 -170 193 0 4 -16 33 -35 63 -19 30 -35 56 -35 59 0 2 -9 19 -20
37 -14 24 -20 28 -20 14z"/>
<path d="M6453 3858 c-17 -24 -41 -53 -53 -66 -12 -13 -20 -25 -18 -28 6 -5
65 59 96 104 13 17 19 32 14 32 -5 0 -22 -19 -39 -42z"/>
<path d="M5315 2855 c-33 -24 -66 -44 -72 -45 -7 0 -13 -4 -13 -10 0 -5 -6
-10 -12 -10 -22 -1 -62 -36 -49 -44 12 -8 182 108 200 137 15 23 15 23 -54
-28z"/>
<path d="M4620 1672 c0 -5 7 -15 15 -22 8 -7 15 -18 15 -25 0 -7 11 -20 25
-29 38 -25 30 -3 -15 44 -22 23 -40 37 -40 32z"/>
<path d="M4711 1384 c0 -11 3 -14 6 -6 3 7 2 16 -1 19 -3 4 -6 -2 -5 -13z"/>
</g>
</svg>
